{
    "asset": {
        "generator": "FBX2glTF v0.9.7",
        "version": "2.0"
    },
    "scene": 0,
    "buffers": [
        {
            "byteLength": 2648556,
            "uri": "data:application/octet-stream;base64,"
        }
    ],
    "bufferViews": [
        {
            "buffer": 0,
            "byteLength": 4608,
            "byteOffset": 0,
            "target": 34963
        },
        {
            "buffer": 0,
            "byteLength": 5016,
            "byteOffset": 4608,
            "target": 34962
        },
        {
            "buffer": 0,
            "byteLength": 5016,
            "byteOffset": 9624,
            "target": 34962
        },
        {
            "buffer": 0,
            "byteLength": 6688,
            "byteOffset": 14640,
            "target": 34962
        },
        {
            "buffer": 0,
            "byteLength": 3344,
            "byteOffset": 21328,
            "target": 34962
        },
        {
            "buffer": 0,
            "byteLength": 212316,
            "byteOffset": 24672,
            "target": 34963
        },
        {
            "buffer": 0,
            "byteLength": 349956,
            "byteOffset": 236988,
            "target": 34962
        },
        {
            "buffer": 0,
            "byteLength": 349956,
            "byteOffset": 586944,
            "target": 34962
        },
        {
            "buffer": 0,
            "byteLength": 466608,
            "byteOffset": 936900,
            "target": 34962
        },
        {
            "buffer": 0,
            "byteLength": 233304,
            "byteOffset": 1403508,
            "target": 34962
        },
        {
            "buffer": 0,
            "byteLength": 3816,
            "byteOffset": 1636812,
            "target": 34963
        },
        {
            "buffer": 0,
            "byteLength": 5964,
            "byteOffset": 1640628,
            "target": 34962
        },
        {
            "buffer": 0,
            "byteLength": 5964,
            "byteOffset": 1646592,
            "target": 34962
        },
        {
            "buffer": 0,
            "byteLength": 7952,
            "byteOffset": 1652556,
            "target": 34962
        },
        {
            "buffer": 0,
            "byteLength": 3976,
            "byteOffset": 1660508,
            "target": 34962
        },
        {
            "buffer": 0,
            "byteLength": 66852,
            "byteOffset": 1664484,
            "target": 34963
        },
        {
            "buffer": 0,
            "byteLength": 103248,
            "byteOffset": 1731336,
            "target": 34962
        },
        {
            "buffer": 0,
            "byteLength": 103248,
            "byteOffset": 1834584,
            "target": 34962
        },
        {
            "buffer": 0,
            "byteLength": 137664,
            "byteOffset": 1937832,
            "target": 34962
        },
        {
            "buffer": 0,
            "byteLength": 68832,
            "byteOffset": 2075496,
            "target": 34962
        },
        {
            "buffer": 0,
            "byteLength": 66852,
            "byteOffset": 2144328,
            "target": 34963
        },
        {
            "buffer": 0,
            "byteLength": 103176,
            "byteOffset": 2211180,
            "target": 34962
        },
        {
            "buffer": 0,
            "byteLength": 103176,
            "byteOffset": 2314356,
            "target": 34962
        },
        {
            "buffer": 0,
            "byteLength": 137568,
            "byteOffset": 2417532,
            "target": 34962
        },
        {
            "buffer": 0,
            "byteLength": 68784,
            "byteOffset": 2555100,
            "target": 34962
        },
        {
            "buffer": 0,
            "byteLength": 4608,
            "byteOffset": 2623884,
            "target": 34963
        },
        {
            "buffer": 0,
            "byteLength": 5016,
            "byteOffset": 2628492,
            "target": 34962
        },
        {
            "buffer": 0,
            "byteLength": 5016,
            "byteOffset": 2633508,
            "target": 34962
        },
        {
            "buffer": 0,
            "byteLength": 6688,
            "byteOffset": 2638524,
            "target": 34962
        },
        {
            "buffer": 0,
            "byteLength": 3344,
            "byteOffset": 2645212,
            "target": 34962
        }
    ],
    "scenes": [
        {
            "name": "Root Scene",
            "nodes": [
                0
            ]
        }
    ],
    "accessors": [
        {
            "componentType": 5123,
            "type": "SCALAR",
            "count": 2304,
            "bufferView": 0,
            "byteOffset": 0
        },
        {
            "componentType": 5126,
            "type": "VEC3",
            "count": 418,
            "bufferView": 1,
            "byteOffset": 0,
            "min": [
                -3.1172833442688,
                -3.1172821521759,
                -3.13167381286621
            ],
            "max": [
                3.11727905273438,
                3.11728119850159,
                4.41326619693427e-06
            ]
        },
        {
            "componentType": 5126,
            "type": "VEC3",
            "count": 418,
            "bufferView": 2,
            "byteOffset": 0
        },
        {
            "componentType": 5126,
            "type": "VEC4",
            "count": 418,
            "bufferView": 3,
            "byteOffset": 0
        },
        {
            "componentType": 5126,
            "type": "VEC2",
            "count": 418,
            "bufferView": 4,
            "byteOffset": 0
        },
        {
            "componentType": 5123,
            "type": "SCALAR",
            "count": 106158,
            "bufferView": 5,
            "byteOffset": 0
        },
        {
            "componentType": 5126,
            "type": "VEC3",
            "count": 29163,
            "bufferView": 6,
            "byteOffset": 0,
            "min": [
                -45.0629272460938,
                -52.8146209716797,
                -0.00841552019119263
            ],
            "max": [
                31.799747467041,
                46.2185745239258,
                74.0174865722656
            ]
        },
        {
            "componentType": 5126,
            "type": "VEC3",
            "count": 29163,
            "bufferView": 7,
            "byteOffset": 0
        },
        {
            "componentType": 5126,
            "type": "VEC4",
            "count": 29163,
            "bufferView": 8,
            "byteOffset": 0
        },
        {
            "componentType": 5126,
            "type": "VEC2",
            "count": 29163,
            "bufferView": 9,
            "byteOffset": 0
        },
        {
            "componentType": 5123,
            "type": "SCALAR",
            "count": 1908,
            "bufferView": 10,
            "byteOffset": 0
        },
        {
            "componentType": 5126,
            "type": "VEC3",
            "count": 497,
            "bufferView": 11,
            "byteOffset": 0,
            "min": [
                -10.2608871459961,
                -10.2608833312988,
                -18.1375179290771
            ],
            "max": [
                10.260892868042,
                10.2609071731567,
                9.28060399019159e-06
            ]
        },
        {
            "componentType": 5126,
            "type": "VEC3",
            "count": 497,
            "bufferView": 12,
            "byteOffset": 0
        },
        {
            "componentType": 5126,
            "type": "VEC4",
            "count": 497,
            "bufferView": 13,
            "byteOffset": 0
        },
        {
            "componentType": 5126,
            "type": "VEC2",
            "count": 497,
            "bufferView": 14,
            "byteOffset": 0
        },
        {
            "componentType": 5123,
            "type": "SCALAR",
            "count": 33426,
            "bufferView": 15,
            "byteOffset": 0
        },
        {
            "componentType": 5126,
            "type": "VEC3",
            "count": 8604,
            "bufferView": 16,
            "byteOffset": 0,
            "min": [
                -11.2705821990967,
                -7.62265777587891,
                -21.0944232940674
            ],
            "max": [
                8.72087478637695,
                71.2042465209961,
                14.304518699646
            ]
        },
        {
            "componentType": 5126,
            "type": "VEC3",
            "count": 8604,
            "bufferView": 17,
            "byteOffset": 0
        },
        {
            "componentType": 5126,
            "type": "VEC4",
            "count": 8604,
            "bufferView": 18,
            "byteOffset": 0
        },
        {
            "componentType": 5126,
            "type": "VEC2",
            "count": 8604,
            "bufferView": 19,
            "byteOffset": 0
        },
        {
            "componentType": 5123,
            "type": "SCALAR",
            "count": 33426,
            "bufferView": 20,
            "byteOffset": 0
        },
        {
            "componentType": 5126,
            "type": "VEC3",
            "count": 8598,
            "bufferView": 21,
            "byteOffset": 0,
            "min": [
                -8.72087574005127,
                -7.62265777587891,
                -21.094425201416
            ],
            "max": [
                11.2705812454224,
                71.2042465209961,
                14.3045177459717
            ]
        },
        {
            "componentType": 5126,
            "type": "VEC3",
            "count": 8598,
            "bufferView": 22,
            "byteOffset": 0
        },
        {
            "componentType": 5126,
            "type": "VEC4",
            "count": 8598,
            "bufferView": 23,
            "byteOffset": 0
        },
        {
            "componentType": 5126,
            "type": "VEC2",
            "count": 8598,
            "bufferView": 24,
            "byteOffset": 0
        },
        {
            "componentType": 5123,
            "type": "SCALAR",
            "count": 2304,
            "bufferView": 25,
            "byteOffset": 0
        },
        {
            "componentType": 5126,
            "type": "VEC3",
            "count": 418,
            "bufferView": 26,
            "byteOffset": 0,
            "min": [
                -3.11728143692017,
                -3.11727809906006,
                -3.07138514518738
            ],
            "max": [
                3.11728143692017,
                3.11728501319885,
                0.0602927468717098
            ]
        },
        {
            "componentType": 5126,
            "type": "VEC3",
            "count": 418,
            "bufferView": 27,
            "byteOffset": 0
        },
        {
            "componentType": 5126,
            "type": "VEC4",
            "count": 418,
            "bufferView": 28,
            "byteOffset": 0
        },
        {
            "componentType": 5126,
            "type": "VEC2",
            "count": 418,
            "bufferView": 29,
            "byteOffset": 0
        }
    ],
    "samplers": [
        {}
    ],
    "materials": [
        {
            "name": "Lit",
            "alphaMode": "OPAQUE",
            "extras": {
                "fromFBX": {
                    "shadingModel": "Lambert",
                    "isTruePBR": false
                }
            },
            "pbrMetallicRoughness": {
                "baseColorFactor": [
                    0.5,
                    0.5,
                    0.5,
                    1.0
                ],
                "metallicFactor": 0.200000002980232,
                "roughnessFactor": 0.800000011920929
            }
        }
    ],
    "meshes": [
        {
            "name": "blackButton",
            "primitives": [
                {
                    "material": 0,
                    "mode": 4,
                    "attributes": {
                        "NORMAL": 2,
                        "POSITION": 1,
                        "TANGENT": 3,
                        "TEXCOORD_0": 4
                    },
                    "indices": 0
                }
            ]
        },
        {
            "name": "capstan_main",
            "primitives": [
                {
                    "material": 0,
                    "mode": 4,
                    "attributes": {
                        "NORMAL": 7,
                        "POSITION": 6,
                        "TANGENT": 8,
                        "TEXCOORD_0": 9
                    },
                    "indices": 5
                }
            ]
        },
        {
            "name": "capstan_main_top",
            "primitives": [
                {
                    "material": 0,
                    "mode": 4,
                    "attributes": {
                        "NORMAL": 12,
                        "POSITION": 11,
                        "TANGENT": 13,
                        "TEXCOORD_0": 14
                    },
                    "indices": 10
                }
            ]
        },
        {
            "name": "hook_structure_01",
            "primitives": [
                {
                    "material": 0,
                    "mode": 4,
                    "attributes": {
                        "NORMAL": 17,
                        "POSITION": 16,
                        "TANGENT": 18,
                        "TEXCOORD_0": 19
                    },
                    "indices": 15
                }
            ]
        },
        {
            "name": "hook_structure_02",
            "primitives": [
                {
                    "material": 0,
                    "mode": 4,
                    "attributes": {
                        "NORMAL": 22,
                        "POSITION": 21,
                        "TANGENT": 23,
                        "TEXCOORD_0": 24
                    },
                    "indices": 20
                }
            ]
        },
        {
            "name": "redButton",
            "primitives": [
                {
                    "material": 0,
                    "mode": 4,
                    "attributes": {
                        "NORMAL": 27,
                        "POSITION": 26,
                        "TANGENT": 28,
                        "TEXCOORD_0": 29
                    },
                    "indices": 25
                }
            ]
        }
    ],
    "nodes": [
        {
            "name": "RootNode",
            "translation": [
                0.0,
                0.0,
                0.0
            ],
            "rotation": [
                0.0,
                0.0,
                0.0,
                1.0
            ],
            "scale": [
                1.0,
                1.0,
                1.0
            ],
            "children": [
                1
            ]
        },
        {
            "name": "capstan",
            "translation": [
                0.0,
                0.0,
                0.0
            ],
            "rotation": [
                0.0,
                0.0,
                0.0,
                1.0
            ],
            "scale": [
                1.0,
                1.0,
                1.0
            ],
            "children": [
                2,
                3,
                4,
                5,
                6,
                7
            ]
        },
        {
            "name": "blackButton",
            "translation": [
                6.54342460632324,
                13.6988887786865,
                50.9619026184082
            ],
            "rotation": [
                -0.461748600006104,
                -0.0,
                0.0,
                0.887010812759399
            ],
            "scale": [
                1.0,
                1.0,
                1.0
            ],
            "mesh": 0
        },
        {
            "name": "capstan_main",
            "translation": [
                0.0,
                0.0,
                0.0
            ],
            "rotation": [
                -0.70710676908493,
                -0.0,
                0.0,
                0.70710676908493
            ],
            "scale": [
                1.0,
                1.0,
                1.0
            ],
            "mesh": 1
        },
        {
            "name": "capstan_main_top",
            "translation": [
                -1.9073486328125e-06,
                81.4865036010742,
                5.08676147460938
            ],
            "rotation": [
                -0.737277328968048,
                8.65131857580308e-17,
                8.65131857580308e-17,
                0.675590217113495
            ],
            "scale": [
                1.0,
                1.0,
                1.0
            ],
            "mesh": 2
        },
        {
            "name": "hook_structure_01",
            "translation": [
                -11.8286666870117,
                27.2497215270996,
                -31.1768188476563
            ],
            "rotation": [
                -0.70710676908493,
                -0.0,
                0.0,
                0.70710676908493
            ],
            "scale": [
                1.0,
                1.0,
                1.0
            ],
            "mesh": 3
        },
        {
            "name": "hook_structure_02",
            "translation": [
                11.828667640686,
                27.2497234344482,
                -31.1768188476563
            ],
            "rotation": [
                -0.70710676908493,
                -0.0,
                0.0,
                0.70710676908493
            ],
            "scale": [
                1.0,
                1.0,
                1.0
            ],
            "mesh": 4
        },
        {
            "name": "redButton",
            "translation": [
                -6.56997346878052,
                13.6495056152344,
                50.9273223876953
            ],
            "rotation": [
                -0.461748600006104,
                -0.0,
                0.0,
                0.887010812759399
            ],
            "scale": [
                1.0,
                1.0,
                1.0
            ],
            "mesh": 5
        }
    ]
}