{
    "asset": {
        "generator": "FBX2glTF v0.9.7",
        "version": "2.0"
    },
    "scene": 0,
    "buffers": [
        {
            "byteLength": 234456,
            "uri": "data:application/octet-stream;base64,"
        }
    ],
    "bufferViews": [
        {
            "buffer": 0,
            "byteLength": 26448,
            "byteOffset": 0,
            "target": 34963
        },
        {
            "buffer": 0,
            "byteLength": 38412,
            "byteOffset": 26448,
            "target": 34962
        },
        {
            "buffer": 0,
            "byteLength": 38412,
            "byteOffset": 64860,
            "target": 34962
        },
        {
            "buffer": 0,
            "byteLength": 25608,
            "byteOffset": 103272,
            "target": 34962
        },
        {
            "buffer": 0,
            "byteLength": 21672,
            "byteOffset": 128880,
            "target": 34963
        },
        {
            "buffer": 0,
            "byteLength": 31464,
            "byteOffset": 150552,
            "target": 34962
        },
        {
            "buffer": 0,
            "byteLength": 31464,
            "byteOffset": 182016,
            "target": 34962
        },
        {
            "buffer": 0,
            "byteLength": 20976,
            "byteOffset": 213480,
            "target": 34962
        }
    ],
    "scenes": [
        {
            "name": "Root Scene",
            "nodes": [
                0
            ]
        }
    ],
    "accessors": [
        {
            "componentType": 5123,
            "type": "SCALAR",
            "count": 13224,
            "bufferView": 0,
            "byteOffset": 0
        },
        {
            "componentType": 5126,
            "type": "VEC3",
            "count": 3201,
            "bufferView": 1,
            "byteOffset": 0,
            "min": [
                -0.000874999386724085,
                -0.000874999968800694,
                -2.55834676360367e-11
            ],
            "max": [
                0.000874999968800694,
                0.000874999968800694,
                0.000631020229775459
            ]
        },
        {
            "componentType": 5126,
            "type": "VEC3",
            "count": 3201,
            "bufferView": 2,
            "byteOffset": 0
        },
        {
            "componentType": 5126,
            "type": "VEC2",
            "count": 3201,
            "bufferView": 3,
            "byteOffset": 0
        },
        {
            "componentType": 5123,
            "type": "SCALAR",
            "count": 10836,
            "bufferView": 4,
            "byteOffset": 0
        },
        {
            "componentType": 5126,
            "type": "VEC3",
            "count": 2622,
            "bufferView": 5,
            "byteOffset": 0,
            "min": [
                -0.00052000000141561,
                -0.000699999975040555,
                -6.76811669109156e-06
            ],
            "max": [
                0.00052000000141561,
                0.000699999975040555,
                0.000433424487709999
            ]
        },
        {
            "componentType": 5126,
            "type": "VEC3",
            "count": 2622,
            "bufferView": 6,
            "byteOffset": 0
        },
        {
            "componentType": 5126,
            "type": "VEC2",
            "count": 2622,
            "bufferView": 7,
            "byteOffset": 0
        }
    ],
    "images": [
        {
            "name": "base_color_texture",
            "uri": "data:image/png;base64,"
        }
    ],
    "samplers": [
        {}
    ],
    "textures": [
        {
            "name": "base_color_texture",
            "sampler": 0,
            "source": 0
        }
    ],
    "materials": [
        {
            "name": "alarm",
            "alphaMode": "OPAQUE",
            "extras": {
                "fromFBX": {
                    "shadingModel": "Phong",
                    "isTruePBR": false
                }
            },
            "pbrMetallicRoughness": {
                "baseColorTexture": {
                    "index": 0,
                    "texCoord": 0
                },
                "baseColorFactor": [
                    1.0,
                    1.0,
                    1.0,
                    1.0
                ],
                "metallicFactor": 0.400000005960464,
                "roughnessFactor": 0.272165536880493
            }
        }
    ],
    "meshes": [
        {
            "name": "bell",
            "primitives": [
                {
                    "material": 0,
                    "mode": 4,
                    "attributes": {
                        "NORMAL": 2,
                        "POSITION": 1,
                        "TEXCOORD_0": 3
                    },
                    "indices": 0
                }
            ]
        },
        {
            "name": "lever",
            "primitives": [
                {
                    "material": 0,
                    "mode": 4,
                    "attributes": {
                        "NORMAL": 6,
                        "POSITION": 5,
                        "TEXCOORD_0": 7
                    },
                    "indices": 4
                }
            ]
        }
    ],
    "nodes": [
        {
            "name": "RootNode",
            "translation": [
                0.0,
                0.0,
                0.0
            ],
            "rotation": [
                0.0,
                0.0,
                0.0,
                1.0
            ],
            "scale": [
                1.0,
                1.0,
                1.0
            ],
            "children": [
                1,
                2
            ]
        },
        {
            "name": "bell",
            "translation": [
                0.0,
                0.0,
                0.0
            ],
            "rotation": [
                -0.707106828689575,
                0.0,
                0.0,
                0.707106709480286
            ],
            "scale": [
                100.0,
                100.0,
                100.0
            ],
            "mesh": 0
        },
        {
            "name": "lever",
            "translation": [
                0.202789649367332,
                0.0,
                0.0
            ],
            "rotation": [
                -0.707106828689575,
                0.0,
                0.0,
                0.707106709480286
            ],
            "scale": [
                100.0,
                100.0,
                100.0
            ],
            "mesh": 1
        }
    ]
}