{
    "asset": {
        "generator": "FBX2glTF v0.9.7",
        "version": "2.0"
    },
    "scene": 0,
    "buffers": [
        {
            "byteLength": 106888,
            "uri": "data:application/octet-stream;base64,"
        }
    ],
    "bufferViews": [
        {
            "buffer": 0,
            "byteLength": 1344,
            "byteOffset": 0,
            "target": 34963
        },
        {
            "buffer": 0,
            "byteLength": 1560,
            "byteOffset": 1344,
            "target": 34962
        },
        {
            "buffer": 0,
            "byteLength": 1560,
            "byteOffset": 2904,
            "target": 34962
        },
        {
            "buffer": 0,
            "byteLength": 1040,
            "byteOffset": 4464,
            "target": 34962
        },
        {
            "buffer": 0,
            "byteLength": 24552,
            "byteOffset": 5504,
            "target": 34963
        },
        {
            "buffer": 0,
            "byteLength": 28812,
            "byteOffset": 30056,
            "target": 34962
        },
        {
            "buffer": 0,
            "byteLength": 28812,
            "byteOffset": 58868,
            "target": 34962
        },
        {
            "buffer": 0,
            "byteLength": 19208,
            "byteOffset": 87680,
            "target": 34962
        }
    ],
    "scenes": [
        {
            "name": "Root Scene",
            "nodes": [
                0
            ]
        }
    ],
    "accessors": [
        {
            "componentType": 5123,
            "type": "SCALAR",
            "count": 672,
            "bufferView": 0,
            "byteOffset": 0
        },
        {
            "componentType": 5126,
            "type": "VEC3",
            "count": 130,
            "bufferView": 1,
            "byteOffset": 0,
            "min": [
                -0.0019597199279815,
                -0.00207479996606708,
                -0.00103225000202656
            ],
            "max": [
                0.0019597199279815,
                -0.00129313999786973,
                0.000531069992575794
            ]
        },
        {
            "componentType": 5126,
            "type": "VEC3",
            "count": 130,
            "bufferView": 2,
            "byteOffset": 0
        },
        {
            "componentType": 5126,
            "type": "VEC2",
            "count": 130,
            "bufferView": 3,
            "byteOffset": 0
        },
        {
            "componentType": 5123,
            "type": "SCALAR",
            "count": 12276,
            "bufferView": 4,
            "byteOffset": 0
        },
        {
            "componentType": 5126,
            "type": "VEC3",
            "count": 2401,
            "bufferView": 5,
            "byteOffset": 0,
            "min": [
                -0.00460449000820518,
                -0.00364257977344096,
                -0.0100530097261071
            ],
            "max": [
                0.00460449000820518,
                0.0141051597893238,
                0.00375741976313293
            ]
        },
        {
            "componentType": 5126,
            "type": "VEC3",
            "count": 2401,
            "bufferView": 6,
            "byteOffset": 0
        },
        {
            "componentType": 5126,
            "type": "VEC2",
            "count": 2401,
            "bufferView": 7,
            "byteOffset": 0
        }
    ],
    "images": [
        {
            "name": "diffuse_shibainu_dp_Base_Color.png",
            "uri": "diffuse_shibainu_dp_Base_Color.png"
        }
    ],
    "samplers": [
        {}
    ],
    "textures": [
        {
            "name": "Map #7",
            "sampler": 0,
            "source": 0
        }
    ],
    "materials": [
        {
            "name": "model_deadpool_obj_eyes",
            "alphaMode": "OPAQUE",
            "extras": {
                "fromFBX": {
                    "shadingModel": "Metallic/Roughness",
                    "isTruePBR": true
                }
            },
            "pbrMetallicRoughness": {
                "baseColorFactor": [
                    0.5,
                    0.5,
                    0.5,
                    1.0
                ],
                "metallicFactor": 0.0,
                "roughnessFactor": 0.0
            }
        },
        {
            "name": "14 - Default",
            "alphaMode": "BLEND",
            "extras": {
                "fromFBX": {
                    "shadingModel": "Metallic/Roughness",
                    "isTruePBR": true
                }
            },
            "pbrMetallicRoughness": {
                "baseColorTexture": {
                    "index": 0,
                    "texCoord": 0
                },
                "baseColorFactor": [
                    0.5,
                    0.5,
                    0.5,
                    1.0
                ],
                "metallicFactor": 0.0,
                "roughnessFactor": 0.0
            }
        }
    ],
    "meshes": [
        {
            "name": "Object001_default_0",
            "primitives": [
                {
                    "material": 0,
                    "mode": 4,
                    "attributes": {
                        "NORMAL": 2,
                        "POSITION": 1,
                        "TEXCOORD_0": 3
                    },
                    "indices": 0
                },
                {
                    "material": 1,
                    "mode": 4,
                    "attributes": {
                        "NORMAL": 6,
                        "POSITION": 5,
                        "TEXCOORD_0": 7
                    },
                    "indices": 4
                }
            ]
        }
    ],
    "nodes": [
        {
            "name": "RootNode",
            "translation": [
                0.0,
                0.0,
                0.0
            ],
            "rotation": [
                0.0,
                0.0,
                0.0,
                1.0
            ],
            "scale": [
                1.0,
                1.0,
                1.0
            ],
            "children": [
                1
            ]
        },
        {
            "name": "Object001_default_0",
            "translation": [
                0.0,
                0.0,
                0.0
            ],
            "rotation": [
                -0.70710676908493,
                -0.0,
                0.0,
                0.70710676908493
            ],
            "scale": [
                100.0,
                100.0,
                100.0
            ],
            "mesh": 0
        }
    ]
}