{"asset":{"generator":"FBX2glTF v0.9.7","version":"2.0"},"scene":0,"buffers":[{"byteLength":695144,"uri":"data:application/octet-stream;base64,"}],"bufferViews":[{"buffer":0,"byteLength":118128,"byteOffset":0,"target":34963},{"buffer":0,"byteLength":125376,"byteOffset":118128,"target":34962},{"buffer":0,"byteLength":125376,"byteOffset":243504,"target":34962},{"buffer":0,"byteLength":83584,"byteOffset":368880,"target":34962},{"buffer":0,"byteLength":83584,"byteOffset":452464,"target":34962},{"buffer":0,"byteLength":6312,"byteOffset":536048,"target":34963},{"buffer":0,"byteLength":7920,"byteOffset":542360,"target":34962},{"buffer":0,"byteLength":7920,"byteOffset":550280,"target":34962},{"buffer":0,"byteLength":5280,"byteOffset":558200,"target":34962},{"buffer":0,"byteLength":5280,"byteOffset":563480,"target":34962},{"buffer":0,"byteLength":504,"byteOffset":568760,"target":34963},{"buffer":0,"byteLength":720,"byteOffset":569264,"target":34962},{"buffer":0,"byteLength":720,"byteOffset":569984,"target":34962},{"buffer":0,"byteLength":480,"byteOffset":570704,"target":34962},{"buffer":0,"byteLength":480,"byteOffset":571184,"target":34962},{"buffer":0,"byteLength":13248,"byteOffset":571664,"target":34963},{"buffer":0,"byteLength":15660,"byteOffset":584912,"target":34962},{"buffer":0,"byteLength":15660,"byteOffset":600572,"target":34962},{"buffer":0,"byteLength":10440,"byteOffset":616232,"target":34962},{"buffer":0,"byteLength":10440,"byteOffset":626672,"target":34962},{"buffer":0,"byteLength":12192,"byteOffset":637112,"target":34963},{"buffer":0,"byteLength":13752,"byteOffset":649304,"target":34962},{"buffer":0,"byteLength":13752,"byteOffset":663056,"target":34962},{"buffer":0,"byteLength":9168,"byteOffset":676808,"target":34962},{"buffer":0,"byteLength":9168,"byteOffset":685976,"target":34962}],"scenes":[{"name":"Root Scene","nodes":[0]}],"accessors":[{"componentType":5123,"type":"SCALAR","count":59064,"bufferView":0,"byteOffset":0},{"componentType":5126,"type":"VEC3","count":10448,"bufferView":1,"byteOffset":0,"min":[-0.20442758500576,-0.160526812076569,-0.294583082199097],"max":[0.20442758500576,0.160526841878891,0.294583082199097]},{"componentType":5126,"type":"VEC3","count":10448,"bufferView":2,"byteOffset":0},{"componentType":5126,"type":"VEC2","count":10448,"bufferView":3,"byteOffset":0},{"componentType":5126,"type":"VEC2","count":10448,"bufferView":4,"byteOffset":0},{"componentType":5123,"type":"SCALAR","count":3156,"bufferView":5,"byteOffset":0},{"componentType":5126,"type":"VEC3","count":660,"bufferView":6,"byteOffset":0,"min":[-0.0169827248901129,-0.0176095869392157,-0.127338916063309],"max":[0.0169827248901129,0.0176095962524414,0.127338886260986]},{"componentType":5126,"type":"VEC3","count":660,"bufferView":7,"byteOffset":0},{"componentType":5126,"type":"VEC2","count":660,"bufferView":8,"byteOffset":0},{"componentType":5126,"type":"VEC2","count":660,"bufferView":9,"byteOffset":0},{"componentType":5123,"type":"SCALAR","count":252,"bufferView":10,"byteOffset":0},{"componentType":5126,"type":"VEC3","count":60,"bufferView":11,"byteOffset":0,"min":[-0.0109565611928701,-0.00347803998738527,-0.00854291114956141],"max":[0.0110672935843468,0.00372663722373545,0.00859243795275688]},{"componentType":5126,"type":"VEC3","count":60,"bufferView":12,"byteOffset":0},{"componentType":5126,"type":"VEC2","count":60,"bufferView":13,"byteOffset":0},{"componentType":5126,"type":"VEC2","count":60,"bufferView":14,"byteOffset":0},{"componentType":5123,"type":"SCALAR","count":6624,"bufferView":15,"byteOffset":0},{"componentType":5126,"type":"VEC3","count":1305,"bufferView":16,"byteOffset":0,"min":[-0.00854852329939604,-0.00648930529132485,-0.0104192728176713],"max":[0.00854852329939604,0.00648930529132485,0.0104192728176713]},{"componentType":5126,"type":"VEC3","count":1305,"bufferView":17,"byteOffset":0},{"componentType":5126,"type":"VEC2","count":1305,"bufferView":18,"byteOffset":0},{"componentType":5126,"type":"VEC2","count":1305,"bufferView":19,"byteOffset":0},{"componentType":5123,"type":"SCALAR","count":6096,"bufferView":20,"byteOffset":0},{"componentType":5126,"type":"VEC3","count":1146,"bufferView":21,"byteOffset":0,"min":[-0.00608296506106853,-0.00270941737107933,-0.0147507851943374],"max":[0.00608296506106853,0.00270941737107933,0.0147507851943374]},{"componentType":5126,"type":"VEC3","count":1146,"bufferView":22,"byteOffset":0},{"componentType":5126,"type":"VEC2","count":1146,"bufferView":23,"byteOffset":0},{"componentType":5126,"type":"VEC2","count":1146,"bufferView":24,"byteOffset":0}],"images":[{"name":"Safety_Vest_NM.png","uri":"Safety_Vest_NM.png"},{"name":"Safety_Vest_Diffuse.png","uri":"Safety_Vest_Diffuse.png"}],"samplers":[{}],"textures":[{"name":"Map #4","sampler":0,"source":0},{"name":"Map #1","sampler":0,"source":1}],"materials":[{"name":"fabric","alphaMode":"OPAQUE","extras":{"fromFBX":{"shadingModel":"Phong","isTruePBR":false}},"normalTexture":{"index":0,"texCoord":0},"pbrMetallicRoughness":{"baseColorTexture":{"index":1,"texCoord":0},"baseColorFactor":[1,1,1,1],"metallicFactor":0.400000005960464,"roughnessFactor":0.0623782947659492}},{"name":"mat_green","alphaMode":"OPAQUE","extras":{"fromFBX":{"shadingModel":"Phong","isTruePBR":false}},"pbrMetallicRoughness":{"baseColorTexture":{"index":1,"texCoord":0},"baseColorFactor":[1,1,1,1],"metallicFactor":0.400000005960464,"roughnessFactor":0.124034732580185}}],"meshes":[{"name":"Safety_Vest_LP01","primitives":[{"material":0,"mode":4,"attributes":{"NORMAL":2,"POSITION":1,"TEXCOORD_0":3,"TEXCOORD_1":4},"indices":0}]},{"name":"ZBrush_LP01","primitives":[{"material":0,"mode":4,"attributes":{"NORMAL":7,"POSITION":6,"TEXCOORD_0":8,"TEXCOORD_1":9},"indices":5}]},{"name":"ZBrush_LP02","primitives":[{"material":0,"mode":4,"attributes":{"NORMAL":12,"POSITION":11,"TEXCOORD_0":13,"TEXCOORD_1":14},"indices":10}]},{"name":"Zipper_LP01","primitives":[{"material":1,"mode":4,"attributes":{"NORMAL":17,"POSITION":16,"TEXCOORD_0":18,"TEXCOORD_1":19},"indices":15}]},{"name":"ZipperLP01","primitives":[{"material":1,"mode":4,"attributes":{"NORMAL":22,"POSITION":21,"TEXCOORD_0":23,"TEXCOORD_1":24},"indices":20}]}],"nodes":[{"name":"RootNode","translation":[0,0,0],"rotation":[0,0,0,1],"scale":[1,1,1],"children":[1]},{"name":"Safety_Vest","translation":[0,0,0],"rotation":[-0.70710676908493,0,0,0.70710676908493],"scale":[1,1,1],"children":[2,3,4,5,6]},{"name":"Safety_Vest_LP01","translation":[0,0.00172704213764518,0.294583082199097],"rotation":[0,0,0,1],"scale":[1,1,1],"mesh":0},{"name":"Zipper_LP01","translation":[0.00547954626381397,-0.131915509700775,0.289847940206528],"rotation":[0,0,0,1],"scale":[1,1,1],"mesh":3},{"name":"ZipperLP01","translation":[0.00536928744986653,-0.135724693536758,0.273260653018951],"rotation":[0,0,0,1],"scale":[1,1,1],"mesh":4},{"name":"ZBrush_LP01","translation":[0.00722272973507643,-0.143458649516106,0.169413030147552],"rotation":[0,0,0,1],"scale":[1,1,1],"mesh":1},{"name":"ZBrush_LP02","translation":[0.0071205198764801,-0.158775866031647,0.049710426479578],"rotation":[0,0,0,1],"scale":[1,1,1],"mesh":2}]}