{
  "accessors": [
    {
      "name": "Group18985_default_0-Mesh_0_positions",
      "componentType": 5126,
      "count": 272,
      "min": [
        -0.31733599305152893,
        -0.5076500177383423,
        -0.47673898935317993
      ],
      "max": [
        0.31733599305152893,
        -0.0806410014629364,
        0.058437999337911606
      ],
      "type": "VEC3",
      "bufferView": 0,
      "byteOffset": 0
    },
    {
      "name": "Group18985_default_0-Mesh_0_normals",
      "componentType": 5126,
      "count": 272,
      "min": [
        -0.9341116547584534,
        -0.996208131313324,
        -0.9938550591468811
      ],
      "max": [
        0.9341116547584534,
        0.9377254247665405,
        0.9991346001625061
      ],
      "type": "VEC3",
      "bufferView": 1,
      "byteOffset": 0
    },
    {
      "name": "Group18985_default_0-Mesh_0_texcoords",
      "componentType": 5126,
      "count": 272,
      "min": [
        0.7037699818611145,
        0.8414499759674072
      ],
      "max": [
        0.9813349843025208,
        0.9595119953155518
      ],
      "type": "VEC2",
      "bufferView": 2,
      "byteOffset": 0
    },
    {
      "name": "Group18985_default_0-Mesh_0_indices",
      "componentType": 5123,
      "count": 1152,
      "min": [
        0
      ],
      "max": [
        271
      ],
      "type": "SCALAR",
      "bufferView": 3,
      "byteOffset": 0
    },
    {
      "name": "Box002_default_0-Mesh_0_positions",
      "componentType": 5126,
      "count": 494,
      "min": [
        -0.37389299273490906,
        -0.44555699825286865,
        -0.42944300174713135
      ],
      "max": [
        0.37389299273490906,
        0.27099600434303284,
        0.3642579913139343
      ],
      "type": "VEC3",
      "bufferView": 0,
      "byteOffset": 3264
    },
    {
      "name": "Box002_default_0-Mesh_0_normals",
      "componentType": 5126,
      "count": 494,
      "min": [
        -0.9955808520317078,
        -0.9674568772315979,
        -0.9957617521286011
      ],
      "max": [
        0.9955808520317078,
        0.9998123049736023,
        0.99961918592453
      ],
      "type": "VEC3",
      "bufferView": 1,
      "byteOffset": 3264
    },
    {
      "name": "Box002_default_0-Mesh_0_texcoords",
      "componentType": 5126,
      "count": 494,
      "min": [
        0.004151000175625086,
        0.37322700023651123
      ],
      "max": [
        0.517041027545929,
        0.7138280272483826
      ],
      "type": "VEC2",
      "bufferView": 2,
      "byteOffset": 2176
    },
    {
      "name": "Box002_default_0-Mesh_0_indices",
      "componentType": 5123,
      "count": 2724,
      "min": [
        0
      ],
      "max": [
        493
      ],
      "type": "SCALAR",
      "bufferView": 3,
      "byteOffset": 2304
    },
    {
      "name": "Box002_default_0-Mesh_1_positions",
      "componentType": 5126,
      "count": 102,
      "min": [
        -0.31384700536727905,
        0.15765200555324554,
        -0.27353501319885254
      ],
      "max": [
        0.31384700536727905,
        0.37574198842048645,
        -0.09277299791574478
      ],
      "type": "VEC3",
      "bufferView": 0,
      "byteOffset": 9192
    },
    {
      "name": "Box002_default_0-Mesh_1_normals",
      "componentType": 5126,
      "count": 102,
      "min": [
        -0.9474796652793884,
        0.15597094595432281,
        -0.9087786078453064
      ],
      "max": [
        0.9474796652793884,
        0.9606674313545227,
        0.9826992154121399
      ],
      "type": "VEC3",
      "bufferView": 1,
      "byteOffset": 9192
    },
    {
      "name": "Box002_default_0-Mesh_1_texcoords",
      "componentType": 5126,
      "count": 102,
      "min": [
        0.5341500043869019,
        0.755062997341156
      ],
      "max": [
        0.7614910006523132,
        0.8888580203056335
      ],
      "type": "VEC2",
      "bufferView": 2,
      "byteOffset": 6128
    },
    {
      "name": "Box002_default_0-Mesh_1_indices",
      "componentType": 5123,
      "count": 456,
      "min": [
        0
      ],
      "max": [
        101
      ],
      "type": "SCALAR",
      "bufferView": 3,
      "byteOffset": 7752
    },
    {
      "name": "Box002_default_0-Mesh_2_positions",
      "componentType": 5126,
      "count": 406,
      "min": [
        -0.387050986289978,
        -1.002377986907959,
        -0.4233179986476898
      ],
      "max": [
        0.387050986289978,
        -0.37072598934173584,
        -0.03568499907851219
      ],
      "type": "VEC3",
      "bufferView": 0,
      "byteOffset": 10416
    },
    {
      "name": "Box002_default_0-Mesh_2_normals",
      "componentType": 5126,
      "count": 406,
      "min": [
        -0.9990195035934448,
        -0.9989625811576843,
        -0.8725120425224304
      ],
      "max": [
        0.9990195035934448,
        0.7368817925453186,
        0.9953327775001526
      ],
      "type": "VEC3",
      "bufferView": 1,
      "byteOffset": 10416
    },
    {
      "name": "Box002_default_0-Mesh_2_texcoords",
      "componentType": 5126,
      "count": 406,
      "min": [
        0.004151000175625086,
        0.7221310138702393
      ],
      "max": [
        0.47510799765586853,
        0.9168469905853271
      ],
      "type": "VEC2",
      "bufferView": 2,
      "byteOffset": 6944
    },
    {
      "name": "Box002_default_0-Mesh_2_indices",
      "componentType": 5123,
      "count": 2124,
      "min": [
        0
      ],
      "max": [
        405
      ],
      "type": "SCALAR",
      "bufferView": 3,
      "byteOffset": 8664
    },
    {
      "name": "Box002_default_0-Mesh_3_positions",
      "componentType": 5126,
      "count": 411,
      "min": [
        -0.3533959984779358,
        -0.9433590173721313,
        -1.0697020292282104
      ],
      "max": [
        0.3533959984779358,
        -0.1280519962310791,
        0.0014649999793618917
      ],
      "type": "VEC3",
      "bufferView": 0,
      "byteOffset": 15288
    },
    {
      "name": "Box002_default_0-Mesh_3_normals",
      "componentType": 5126,
      "count": 411,
      "min": [
        -0.9721497893333435,
        -0.9971124529838562,
        -0.9051153659820557
      ],
      "max": [
        0.9721497893333435,
        0.9961589574813843,
        0.9749463796615601
      ],
      "type": "VEC3",
      "bufferView": 1,
      "byteOffset": 15288
    },
    {
      "name": "Box002_default_0-Mesh_3_texcoords",
      "componentType": 5126,
      "count": 411,
      "min": [
        0.004151000175625086,
        0.004151000175625086
      ],
      "max": [
        0.6109660267829895,
        0.36492499709129333
      ],
      "type": "VEC2",
      "bufferView": 2,
      "byteOffset": 10192
    },
    {
      "name": "Box002_default_0-Mesh_3_indices",
      "componentType": 5123,
      "count": 1950,
      "min": [
        0
      ],
      "max": [
        410
      ],
      "type": "SCALAR",
      "bufferView": 3,
      "byteOffset": 12912
    },
    {
      "name": "Box002_default_0-Mesh_4_positions",
      "componentType": 5126,
      "count": 476,
      "min": [
        -0.4604490101337433,
        -1.0053009986877441,
        -1.0046390295028687
      ],
      "max": [
        0.4604490101337433,
        -0.43463701009750366,
        -0.4703570008277893
      ],
      "type": "VEC3",
      "bufferView": 0,
      "byteOffset": 20220
    },
    {
      "name": "Box002_default_0-Mesh_4_normals",
      "componentType": 5126,
      "count": 476,
      "min": [
        -0.9977169632911682,
        -0.9987883567810059,
        -0.946126401424408
      ],
      "max": [
        0.9977169632911682,
        0.9075791239738464,
        0.9983479976654053
      ],
      "type": "VEC3",
      "bufferView": 1,
      "byteOffset": 20220
    },
    {
      "name": "Box002_default_0-Mesh_4_texcoords",
      "componentType": 5126,
      "count": 476,
      "min": [
        0.6421769857406616,
        0.0062339999713003635
      ],
      "max": [
        0.9958490133285522,
        0.7467610239982605
      ],
      "type": "VEC2",
      "bufferView": 2,
      "byteOffset": 13480
    },
    {
      "name": "Box002_default_0-Mesh_4_indices",
      "componentType": 5123,
      "count": 2502,
      "min": [
        0
      ],
      "max": [
        475
      ],
      "type": "SCALAR",
      "bufferView": 3,
      "byteOffset": 16812
    },
    {
      "name": "Box002_default_0-Mesh_5_positions",
      "componentType": 5126,
      "count": 256,
      "min": [
        -0.20942799746990204,
        -0.7580569982528687,
        -1.4105160236358643
      ],
      "max": [
        0.20942799746990204,
        -0.1679690033197403,
        -0.9133300185203552
      ],
      "type": "VEC3",
      "bufferView": 0,
      "byteOffset": 25932
    },
    {
      "name": "Box002_default_0-Mesh_5_normals",
      "componentType": 5126,
      "count": 256,
      "min": [
        -0.9983296394348145,
        -0.9734617471694946,
        -0.9998846650123596
      ],
      "max": [
        0.9983296394348145,
        0.9973865151405334,
        0.9972045421600342
      ],
      "type": "VEC3",
      "bufferView": 1,
      "byteOffset": 25932
    },
    {
      "name": "Box002_default_0-Mesh_5_texcoords",
      "componentType": 5126,
      "count": 256,
      "min": [
        0.5253430008888245,
        0.37322700023651123
      ],
      "max": [
        0.7614910006523132,
        0.7467610239982605
      ],
      "type": "VEC2",
      "bufferView": 2,
      "byteOffset": 17288
    },
    {
      "name": "Box002_default_0-Mesh_5_indices",
      "componentType": 5123,
      "count": 1368,
      "min": [
        0
      ],
      "max": [
        255
      ],
      "type": "SCALAR",
      "bufferView": 3,
      "byteOffset": 21816
    },
    {
      "name": "Object001_default_0-Mesh_0_positions",
      "componentType": 5126,
      "count": 130,
      "min": [
        -0.1959719955921173,
        -0.10322500020265579,
        0.12931400537490845
      ],
      "max": [
        0.1959719955921173,
        0.05310700088739395,
        0.20747999846935272
      ],
      "type": "VEC3",
      "bufferView": 0,
      "byteOffset": 29004
    },
    {
      "name": "Object001_default_0-Mesh_0_normals",
      "componentType": 5126,
      "count": 130,
      "min": [
        -0.9807844161987305,
        -0.9807844161987305,
        0.19509467482566833
      ],
      "max": [
        0.9807844161987305,
        0.9807844161987305,
        1
      ],
      "type": "VEC3",
      "bufferView": 1,
      "byteOffset": 29004
    },
    {
      "name": "Object001_default_0-Mesh_0_texcoords",
      "componentType": 5126,
      "count": 130,
      "min": [
        0.8386009931564331,
        0.23170100152492523
      ],
      "max": [
        0.9202569723129272,
        0.31310999393463135
      ],
      "type": "VEC2",
      "bufferView": 2,
      "byteOffset": 19336
    },
    {
      "name": "Object001_default_0-Mesh_0_indices",
      "componentType": 5123,
      "count": 672,
      "min": [
        0
      ],
      "max": [
        129
      ],
      "type": "SCALAR",
      "bufferView": 3,
      "byteOffset": 24552
    }
  ],
  "asset": {
    "generator": "obj2gltf",
    "version": "2.0"
  },
  "buffers": [
    {
      "name": "model_deadpool_obj",
      "byteLength": 107400,
      "uri": "data:application/octet-stream;base64,"
    }
  ],
  "bufferViews": [
    {
      "name": "bufferView_0",
      "buffer": 0,
      "byteLength": 30564,
      "byteOffset": 0,
      "byteStride": 12,
      "target": 34962
    },
    {
      "name": "bufferView_1",
      "buffer": 0,
      "byteLength": 30564,
      "byteOffset": 30564,
      "byteStride": 12,
      "target": 34962
    },
    {
      "name": "bufferView_2",
      "buffer": 0,
      "byteLength": 20376,
      "byteOffset": 61128,
      "byteStride": 8,
      "target": 34962
    },
    {
      "name": "bufferView_3",
      "buffer": 0,
      "byteLength": 25896,
      "byteOffset": 81504,
      "target": 34963
    }
  ],
  "materials": [
    {
      "name": "collar",
      "pbrMetallicRoughness": {
        "baseColorFactor": [
          0.5,
          0.5,
          0.5,
          1
        ],
        "metallicFactor": 0,
        "roughnessFactor": 1
      },
      "emissiveFactor": [
        0,
        0,
        0
      ],
      "alphaMode": "OPAQUE",
      "doubleSided": false
    },
    {
      "name": "face",
      "pbrMetallicRoughness": {
        "baseColorFactor": [
          0.5,
          0.5,
          0.5,
          1
        ],
        "metallicFactor": 0,
        "roughnessFactor": 1
      },
      "emissiveFactor": [
        0,
        0,
        0
      ],
      "alphaMode": "OPAQUE",
      "doubleSided": false
    },
    {
      "name": "orecchie",
      "pbrMetallicRoughness": {
        "baseColorFactor": [
          0.5,
          0.5,
          0.5,
          1
        ],
        "metallicFactor": 0,
        "roughnessFactor": 1
      },
      "emissiveFactor": [
        0,
        0,
        0
      ],
      "alphaMode": "OPAQUE",
      "doubleSided": false
    },
    {
      "name": "zampre ant",
      "pbrMetallicRoughness": {
        "baseColorFactor": [
          0.5,
          0.5,
          0.5,
          1
        ],
        "metallicFactor": 0,
        "roughnessFactor": 1
      },
      "emissiveFactor": [
        0,
        0,
        0
      ],
      "alphaMode": "OPAQUE",
      "doubleSided": false
    },
    {
      "name": "body",
      "pbrMetallicRoughness": {
        "baseColorFactor": [
          0.5,
          0.5,
          0.5,
          1
        ],
        "metallicFactor": 0,
        "roughnessFactor": 1
      },
      "emissiveFactor": [
        0,
        0,
        0
      ],
      "alphaMode": "OPAQUE",
      "doubleSided": false
    },
    {
      "name": "zampe post",
      "pbrMetallicRoughness": {
        "baseColorFactor": [
          0.5,
          0.5,
          0.5,
          1
        ],
        "metallicFactor": 0,
        "roughnessFactor": 1
      },
      "emissiveFactor": [
        0,
        0,
        0
      ],
      "alphaMode": "OPAQUE",
      "doubleSided": false
    },
    {
      "name": "tail",
      "pbrMetallicRoughness": {
        "baseColorFactor": [
          0.5,
          0.5,
          0.5,
          1
        ],
        "metallicFactor": 0,
        "roughnessFactor": 1
      },
      "emissiveFactor": [
        0,
        0,
        0
      ],
      "alphaMode": "OPAQUE",
      "doubleSided": false
    },
    {
      "name": "eyes",
      "pbrMetallicRoughness": {
        "baseColorFactor": [
          0.5,
          0.5,
          0.5,
          1
        ],
        "metallicFactor": 0,
        "roughnessFactor": 1
      },
      "emissiveFactor": [
        0,
        0,
        0
      ],
      "alphaMode": "OPAQUE",
      "doubleSided": false
    }
  ],
  "meshes": [
    {
      "name": "Group18985_default_0-Mesh",
      "primitives": [
        {
          "attributes": {
            "POSITION": 0,
            "NORMAL": 1,
            "TEXCOORD_0": 2
          },
          "indices": 3,
          "material": 0,
          "mode": 4
        }
      ]
    },
    {
      "name": "Box002_default_0-Mesh",
      "primitives": [
        {
          "attributes": {
            "POSITION": 4,
            "NORMAL": 5,
            "TEXCOORD_0": 6
          },
          "indices": 7,
          "material": 1,
          "mode": 4
        },
        {
          "attributes": {
            "POSITION": 8,
            "NORMAL": 9,
            "TEXCOORD_0": 10
          },
          "indices": 11,
          "material": 2,
          "mode": 4
        },
        {
          "attributes": {
            "POSITION": 12,
            "NORMAL": 13,
            "TEXCOORD_0": 14
          },
          "indices": 15,
          "material": 3,
          "mode": 4
        },
        {
          "attributes": {
            "POSITION": 16,
            "NORMAL": 17,
            "TEXCOORD_0": 18
          },
          "indices": 19,
          "material": 4,
          "mode": 4
        },
        {
          "attributes": {
            "POSITION": 20,
            "NORMAL": 21,
            "TEXCOORD_0": 22
          },
          "indices": 23,
          "material": 5,
          "mode": 4
        },
        {
          "attributes": {
            "POSITION": 24,
            "NORMAL": 25,
            "TEXCOORD_0": 26
          },
          "indices": 27,
          "material": 6,
          "mode": 4
        }
      ]
    },
    {
      "name": "Object001_default_0-Mesh",
      "primitives": [
        {
          "attributes": {
            "POSITION": 28,
            "NORMAL": 29,
            "TEXCOORD_0": 30
          },
          "indices": 31,
          "material": 7,
          "mode": 4
        }
      ]
    }
  ],
  "nodes": [
    {
      "name": "Group18985_default_0",
      "mesh": 0
    },
    {
      "name": "Box002_default_0",
      "mesh": 1
    },
    {
      "name": "Object001_default_0",
      "mesh": 2
    }
  ],
  "scene": 0,
  "scenes": [
    {
      "nodes": [
        0,
        1,
        2
      ]
    }
  ]
}
