{
    "asset": {
        "generator": "FBX2glTF v0.9.7",
        "version": "2.0"
    },
    "scene": 0,
    "buffers": [
        {
            "byteLength": 536856,
            "uri": "data:application/octet-stream;base64,"
        }
    ],
    "bufferViews": [
        {
            "buffer": 0,
            "byteLength": 35850,
            "byteOffset": 0,
            "target": 34963
        },
        {
            "buffer": 0,
            "byteLength": 114264,
            "byteOffset": 35852,
            "target": 34962
        },
        {
            "buffer": 0,
            "byteLength": 114264,
            "byteOffset": 150116,
            "target": 34962
        },
        {
            "buffer": 0,
            "byteLength": 76176,
            "byteOffset": 264380,
            "target": 34962
        },
        {
            "buffer": 0,
            "byteLength": 24012,
            "byteOffset": 340556,
            "target": 34963
        },
        {
            "buffer": 0,
            "byteLength": 64608,
            "byteOffset": 364568,
            "target": 34962
        },
        {
            "buffer": 0,
            "byteLength": 64608,
            "byteOffset": 429176,
            "target": 34962
        },
        {
            "buffer": 0,
            "byteLength": 43072,
            "byteOffset": 493784,
            "target": 34962
        }
    ],
    "scenes": [
        {
            "name": "Root Scene",
            "nodes": [
                0
            ]
        }
    ],
    "accessors": [
        {
            "componentType": 5123,
            "type": "SCALAR",
            "count": 17925,
            "bufferView": 0,
            "byteOffset": 0
        },
        {
            "componentType": 5126,
            "type": "VEC3",
            "count": 9522,
            "bufferView": 1,
            "byteOffset": 0,
            "min": [
                -0.100662276148796,
                -0.0848309323191643,
                -9.71946501522325e-05
            ],
            "max": [
                0.100662417709827,
                0.357820183038712,
                0.395222157239914
            ]
        },
        {
            "componentType": 5126,
            "type": "VEC3",
            "count": 9522,
            "bufferView": 2,
            "byteOffset": 0
        },
        {
            "componentType": 5126,
            "type": "VEC2",
            "count": 9522,
            "bufferView": 3,
            "byteOffset": 0
        },
        {
            "componentType": 5123,
            "type": "SCALAR",
            "count": 12006,
            "bufferView": 4,
            "byteOffset": 0
        },
        {
            "componentType": 5126,
            "type": "VEC3",
            "count": 5384,
            "bufferView": 5,
            "byteOffset": 0,
            "min": [
                -0.0675152465701103,
                -0.0990364998579025,
                0.000230128920520656
            ],
            "max": [
                0.0700120180845261,
                0.363147675991058,
                0.3935666680336
            ]
        },
        {
            "componentType": 5126,
            "type": "VEC3",
            "count": 5384,
            "bufferView": 6,
            "byteOffset": 0
        },
        {
            "componentType": 5126,
            "type": "VEC2",
            "count": 5384,
            "bufferView": 7,
            "byteOffset": 0
        }
    ],
    "images": [
        {
            "name": "PortalJibCrane_C",
            "uri": "data:image/png;base64,"
        },
        {
            "name": "PortalJibCraneTangga_C",
            "uri": "data:image/png;base64,"
        }
    ],
    "samplers": [
        {}
    ],
    "textures": [
        {
            "name": "PortalJibCrane_C",
            "sampler": 0,
            "source": 0
        },
        {
            "name": "PortalJibCraneTangga_C",
            "sampler": 0,
            "source": 1
        }
    ],
    "materials": [
        {
            "name": "PortalJibCrane",
            "alphaMode": "OPAQUE",
            "extras": {
                "fromFBX": {
                    "shadingModel": "Phong",
                    "isTruePBR": false
                }
            },
            "pbrMetallicRoughness": {
                "baseColorTexture": {
                    "index": 0,
                    "texCoord": 0
                },
                "baseColorFactor": [
                    0.800000011920929,
                    0.800000011920929,
                    0.800000011920929,
                    0.199999988079071
                ],
                "metallicFactor": 0.400000005960464,
                "roughnessFactor": 0.415087103843689
            }
        },
        {
            "name": "PortalJibCraneTangga",
            "alphaMode": "OPAQUE",
            "extras": {
                "fromFBX": {
                    "shadingModel": "Phong",
                    "isTruePBR": false
                }
            },
            "pbrMetallicRoughness": {
                "baseColorTexture": {
                    "index": 1,
                    "texCoord": 0
                },
                "baseColorFactor": [
                    0.800000011920929,
                    0.800000011920929,
                    0.800000011920929,
                    1.0
                ],
                "metallicFactor": 0.400000005960464,
                "roughnessFactor": 0.415087103843689
            }
        }
    ],
    "meshes": [
        {
            "name": "PortalJibCrane",
            "primitives": [
                {
                    "material": 0,
                    "mode": 4,
                    "attributes": {
                        "NORMAL": 2,
                        "POSITION": 1,
                        "TEXCOORD_0": 3
                    },
                    "indices": 0
                },
                {
                    "material": 1,
                    "mode": 4,
                    "attributes": {
                        "NORMAL": 6,
                        "POSITION": 5,
                        "TEXCOORD_0": 7
                    },
                    "indices": 4
                }
            ]
        }
    ],
    "nodes": [
        {
            "name": "RootNode",
            "translation": [
                0.0,
                0.0,
                0.0
            ],
            "rotation": [
                0.0,
                0.0,
                0.0,
                1.0
            ],
            "scale": [
                1.0,
                1.0,
                1.0
            ],
            "children": [
                1
            ]
        },
        {
            "name": "PortalJibCrane",
            "translation": [
                0.0,
                0.0,
                0.0
            ],
            "rotation": [
                -0.707106828689575,
                0.0,
                0.0,
                0.707106709480286
            ],
            "scale": [
                100.0,
                100.0,
                100.0
            ],
            "mesh": 0
        }
    ]
}