{"asset":{"generator":"FBX2glTF v0.9.7","version":"2.0"},"scene":0,"buffers":[{"byteLength":1866312,"uri":"data:application/octet-stream;base64,"}],"bufferViews":[{"buffer":0,"byteLength":164,"byteOffset":0},{"buffer":0,"byteLength":492,"byteOffset":164},{"buffer":0,"byteLength":168162,"byteOffset":656,"target":34963},{"buffer":0,"byteLength":349776,"byteOffset":168820,"target":34962},{"buffer":0,"byteLength":349776,"byteOffset":518596,"target":34962},{"buffer":0,"byteLength":466368,"byteOffset":868372,"target":34962},{"buffer":0,"byteLength":233184,"byteOffset":1334740,"target":34962},{"buffer":0,"byteLength":2412,"byteOffset":1567924,"target":34963},{"buffer":0,"byteLength":5292,"byteOffset":1570336,"target":34962},{"buffer":0,"byteLength":5292,"byteOffset":1575628,"target":34962},{"buffer":0,"byteLength":3528,"byteOffset":1580920,"target":34962},{"buffer":0,"byteLength":36936,"byteOffset":1584448,"target":34963},{"buffer":0,"byteLength":91848,"byteOffset":1621384,"target":34962},{"buffer":0,"byteLength":91848,"byteOffset":1713232,"target":34962},{"buffer":0,"byteLength":61232,"byteOffset":1805080,"target":34962}],"scenes":[{"name":"Root Scene","nodes":[0]}],"accessors":[{"componentType":5126,"type":"SCALAR","count":41,"bufferView":0,"byteOffset":0,"min":[0],"max":[1.66666662693024]},{"componentType":5126,"type":"VEC3","count":41,"bufferView":1,"byteOffset":0},{"componentType":5123,"type":"SCALAR","count":84081,"bufferView":2,"byteOffset":0},{"componentType":5126,"type":"VEC3","count":29148,"bufferView":3,"byteOffset":0,"min":[-330.547882080078,-325.526306152344,230.383941650391],"max":[330.548034667969,325.526214599609,1759.02185058594]},{"componentType":5126,"type":"VEC3","count":29148,"bufferView":4,"byteOffset":0},{"componentType":5126,"type":"VEC4","count":29148,"bufferView":5,"byteOffset":0},{"componentType":5126,"type":"VEC2","count":29148,"bufferView":6,"byteOffset":0},{"componentType":5123,"type":"SCALAR","count":1206,"bufferView":7,"byteOffset":0},{"componentType":5126,"type":"VEC3","count":441,"bufferView":8,"byteOffset":0,"min":[-45.6216163635254,-47.3353157043457,-188.835479736328],"max":[45.6217460632324,47.3353500366211,188.835189819336]},{"componentType":5126,"type":"VEC3","count":441,"bufferView":9,"byteOffset":0},{"componentType":5126,"type":"VEC2","count":441,"bufferView":10,"byteOffset":0},{"componentType":5123,"type":"SCALAR","count":18468,"bufferView":11,"byteOffset":0},{"componentType":5126,"type":"VEC3","count":7654,"bufferView":12,"byteOffset":0,"min":[-270.841796875,-201.640594482422,-0.00683716451749206],"max":[270.841918945313,201.640655517578,483.372650146484]},{"componentType":5126,"type":"VEC3","count":7654,"bufferView":13,"byteOffset":0},{"componentType":5126,"type":"VEC2","count":7654,"bufferView":14,"byteOffset":0}],"images":[null],"samplers":[{}],"textures":[null],"materials":[{"name":"Material #192","alphaMode":"OPAQUE","extras":{"fromFBX":{"shadingModel":"Metallic/Roughness","isTruePBR":true}},"pbrMetallicRoughness":{"baseColorFactor":[0.0467625856399536,0.5,0.353268504142761,1],"roughnessFactor":1,"metallicFactor":1}},{"name":"Material #192","alphaMode":"BLEND","extras":{"fromFBX":{"shadingModel":"Metallic/Roughness","isTruePBR":true}},"pbrMetallicRoughness":{"baseColorFactor":[0.0467625856399536,0.5,0.353268504142761,1],"roughnessFactor":1,"metallicFactor":1}}],"meshes":[{"name":"flow_control_valve_body","primitives":[{"material":1,"mode":4,"attributes":{"COLOR_0":5,"NORMAL":4,"POSITION":3,"TEXCOORD_0":6},"indices":2},{"material":1,"mode":4,"attributes":{"NORMAL":13,"POSITION":12,"TEXCOORD_0":14},"indices":11}]},{"name":"flow_control_valve_stem","primitives":[{"material":1,"mode":4,"attributes":{"NORMAL":9,"POSITION":8,"TEXCOORD_0":10},"indices":7}]}],"animations":[{"name":"Take 001","channels":[{"sampler":0,"target":{"node":2,"path":"translation"}}],"samplers":[{"input":0,"interpolation":"LINEAR","output":1}]}],"nodes":[{"name":"RootNode","translation":[0,0,0],"rotation":[0,0,0,1],"scale":[1,1,1],"children":[1,2]},{"name":"flow_control_valve_body","translation":[-5.48362706354055e-8,0,-9.74385940821776e-8],"rotation":[-0.70710676908493,0,0,0.70710676908493],"scale":[0.000639699981547892,0.000639699981547892,0.000639699981547892],"mesh":0},{"name":"flow_control_valve_stem","translation":[-0.00493101123720407,0.474984914064407,-0.00069201661972329],"rotation":[-0.70710676908493,0,0,0.70710676908493],"scale":[0.000639699981547892,0.000639699981547892,0.000639699981547892],"mesh":1}]}