{
    "asset": {
        "generator": "FBX2glTF v0.9.7",
        "version": "2.0"
    },
    "scene": 0,
    "buffers": [
        {
            "byteLength": 107400,
            "uri": "data:application/octet-stream;base64,"
        }
    ],
    "bufferViews": [
        {
            "buffer": 0,
            "byteLength": 2304,
            "byteOffset": 0,
            "target": 34963
        },
        {
            "buffer": 0,
            "byteLength": 3264,
            "byteOffset": 2304,
            "target": 34962
        },
        {
            "buffer": 0,
            "byteLength": 3264,
            "byteOffset": 5568,
            "target": 34962
        },
        {
            "buffer": 0,
            "byteLength": 2176,
            "byteOffset": 8832,
            "target": 34962
        },
        {
            "buffer": 0,
            "byteLength": 22248,
            "byteOffset": 11008,
            "target": 34963
        },
        {
            "buffer": 0,
            "byteLength": 25740,
            "byteOffset": 33256,
            "target": 34962
        },
        {
            "buffer": 0,
            "byteLength": 25740,
            "byteOffset": 58996,
            "target": 34962
        },
        {
            "buffer": 0,
            "byteLength": 17160,
            "byteOffset": 84736,
            "target": 34962
        },
        {
            "buffer": 0,
            "byteLength": 1344,
            "byteOffset": 101896,
            "target": 34963
        },
        {
            "buffer": 0,
            "byteLength": 1560,
            "byteOffset": 103240,
            "target": 34962
        },
        {
            "buffer": 0,
            "byteLength": 1560,
            "byteOffset": 104800,
            "target": 34962
        },
        {
            "buffer": 0,
            "byteLength": 1040,
            "byteOffset": 106360,
            "target": 34962
        }
    ],
    "scenes": [
        {
            "name": "Root Scene",
            "nodes": [
                0
            ]
        }
    ],
    "accessors": [
        {
            "componentType": 5123,
            "type": "SCALAR",
            "count": 1152,
            "bufferView": 0,
            "byteOffset": 0
        },
        {
            "componentType": 5126,
            "type": "VEC3",
            "count": 272,
            "bufferView": 1,
            "byteOffset": 0,
            "min": [
                -0.00317335990257561,
                0.000806409982033074,
                -0.000584380002692342
            ],
            "max": [
                0.00317335990257561,
                0.00507650012150407,
                0.00476738996803761
            ]
        },
        {
            "componentType": 5126,
            "type": "VEC3",
            "count": 272,
            "bufferView": 2,
            "byteOffset": 0
        },
        {
            "componentType": 5126,
            "type": "VEC2",
            "count": 272,
            "bufferView": 3,
            "byteOffset": 0
        },
        {
            "componentType": 5123,
            "type": "SCALAR",
            "count": 11124,
            "bufferView": 4,
            "byteOffset": 0
        },
        {
            "componentType": 5126,
            "type": "VEC3",
            "count": 2145,
            "bufferView": 5,
            "byteOffset": 0,
            "min": [
                -0.00460449000820518,
                -0.00375741929747164,
                -0.00364257977344096
            ],
            "max": [
                0.00460449000820518,
                0.0100530097261071,
                0.0141051597893238
            ]
        },
        {
            "componentType": 5126,
            "type": "VEC3",
            "count": 2145,
            "bufferView": 6,
            "byteOffset": 0
        },
        {
            "componentType": 5126,
            "type": "VEC2",
            "count": 2145,
            "bufferView": 7,
            "byteOffset": 0
        },
        {
            "componentType": 5123,
            "type": "SCALAR",
            "count": 672,
            "bufferView": 8,
            "byteOffset": 0
        },
        {
            "componentType": 5126,
            "type": "VEC3",
            "count": 130,
            "bufferView": 9,
            "byteOffset": 0,
            "min": [
                -0.0019597199279815,
                -0.000531069992575794,
                -0.00207479996606708
            ],
            "max": [
                0.0019597199279815,
                0.00103225000202656,
                -0.00129313999786973
            ]
        },
        {
            "componentType": 5126,
            "type": "VEC3",
            "count": 130,
            "bufferView": 10,
            "byteOffset": 0
        },
        {
            "componentType": 5126,
            "type": "VEC2",
            "count": 130,
            "bufferView": 11,
            "byteOffset": 0
        }
    ],
    "samplers": [
        {}
    ],
    "materials": [
        {
            "name": "DefaultMaterial",
            "alphaMode": "OPAQUE",
            "extras": {
                "fromFBX": {
                    "shadingModel": "Lambert",
                    "isTruePBR": false
                }
            },
            "pbrMetallicRoughness": {
                "baseColorFactor": [
                    0.5,
                    0.5,
                    0.5,
                    1.0
                ],
                "metallicFactor": 0.200000002980232,
                "roughnessFactor": 0.800000011920929
            }
        }
    ],
    "meshes": [
        {
            "name": "Group18985_default_0",
            "primitives": [
                {
                    "material": 0,
                    "mode": 4,
                    "attributes": {
                        "NORMAL": 2,
                        "POSITION": 1,
                        "TEXCOORD_0": 3
                    },
                    "indices": 0
                }
            ]
        },
        {
            "name": "Box002_default_0",
            "primitives": [
                {
                    "material": 0,
                    "mode": 4,
                    "attributes": {
                        "NORMAL": 6,
                        "POSITION": 5,
                        "TEXCOORD_0": 7
                    },
                    "indices": 4
                }
            ]
        },
        {
            "name": "Object001_default_0",
            "primitives": [
                {
                    "material": 0,
                    "mode": 4,
                    "attributes": {
                        "NORMAL": 10,
                        "POSITION": 9,
                        "TEXCOORD_0": 11
                    },
                    "indices": 8
                }
            ]
        }
    ],
    "nodes": [
        {
            "name": "RootNode",
            "translation": [
                0.0,
                0.0,
                0.0
            ],
            "rotation": [
                0.0,
                0.0,
                0.0,
                1.0
            ],
            "scale": [
                1.0,
                1.0,
                1.0
            ],
            "children": [
                1,
                2,
                3
            ]
        },
        {
            "name": "Group18985_default_0",
            "translation": [
                0.0,
                0.0,
                0.0
            ],
            "rotation": [
                1.0,
                0.0,
                0.0,
                7.54979012640433e-08
            ],
            "scale": [
                100.0,
                100.000038146973,
                100.000038146973
            ],
            "mesh": 0
        },
        {
            "name": "Box002_default_0",
            "translation": [
                0.0,
                0.0,
                0.0
            ],
            "rotation": [
                1.0,
                0.0,
                0.0,
                7.54979012640433e-08
            ],
            "scale": [
                100.0,
                100.000038146973,
                100.000038146973
            ],
            "mesh": 1
        },
        {
            "name": "Object001_default_0",
            "translation": [
                0.0,
                0.0,
                0.0
            ],
            "rotation": [
                1.0,
                0.0,
                0.0,
                7.54979012640433e-08
            ],
            "scale": [
                100.0,
                100.000038146973,
                100.000038146973
            ],
            "mesh": 2
        }
    ]
}